{"title":"Bringing Up Bates - s02e11 - Boating With The Bates","uid":12349612,"size":748905239,"categoryP":"video","categoryS":"hd___tv_shows","magnet":"?xt=urn:btih:e05e7d13eaf51ef8a212ab0e2e824a8b8571b9bd&amp;dn=Bringing+Up+Bates+-+s02e11+-+Boating+With+The+Bates&amp;tr=udp%3A%2F%2Ftracker.openbittorrent.com%3A80&amp;tr=udp%3A%2F%2Fopen.demonii.com%3A1337&amp;tr=udp%3A%2F%2Ftracker.coppersurfer.tk%3A6969&amp;tr=udp%3A%2F%2Fexodus.desync.com%3A6969","seeders":0,"leechers":0,"uploader":null,"files":13,"time":1441402681,"description":"General\n Complete name : Bringing Up Bates - s02e11 - Boating With The BatesBringing Up Bates - s02e11 - Boating With The Bates.mp4\n Format : MPEG-4\n Format profile : Base Media / Version 2\n Codec ID : mp42\n File size : 583 MiB\n Duration : 22mn 6s\n Overall bit rate mode : Variable\n Overall bit rate : 3 688 Kbps\n Encoded date : UTC 2015-08-15 12:55:20\n Tagged date : UTC 2015-08-15 12:55:31\n\n Video\n ID : 1\n Format : AVC\n Format/Info : Advanced Video Codec\n Format profile : &lt;a class=&quot;__cf_email__&quot; href=&quot;/cdn-cgi/l/email-protection&quot; data-cfemail=&quot;3d705c54537d7109130f&quot;&gt;[email&amp;#160;protected]&lt;/a&gt;&lt;script data-cfhash='f9e31' type=&quot;text/javascript&quot;&gt;\n/* &lt;![CDATA[ */!function(){try{var t=&quot;currentScript&quot;in document?document.currentScript:function(){for(var t=document.getElementsByTagName(&quot;script&quot;),e=t.length;e--;)if(t[e].getAttribute(&quot;data-cfhash&quot;))return t[e]}();if(t&amp;&amp;t.previousSibling){var e,r,n,i,c=t.previousSibling,a=c.getAttribute(&quot;data-cfemail&quot;);if(a){for(e=&quot;&quot;,r=parseInt(a.substr(0,2),16),n=2;a.length-n;n+=2)i=parseInt(a.substr(n,2),16)^r,e+=String.fromCharCode(i);e=document.createTextNode(e),c.parentNode.replaceChild(e,c)}t.parentNode.removeChild(t);}}catch(u){}}()/* ]]&gt; */&lt;/script&gt;\n Format settings, CABAC : Yes\n Format settings, ReFrames : 3 frames\n Codec ID : avc1\n Codec ID/Info : Advanced Video Coding\n Duration : 22mn 6s\n Bit rate : 3 494 Kbps\n Width : 1 920 pixels\n Height : 1 080 pixels\n Display aspect ratio : 16:9\n Frame rate mode : Variable\n Frame rate : 29.970 fps\n Minimum frame rate : 29.960 fps\n Maximum frame rate : 30.000 fps\n Standard : NTSC\n Color space : YUV\n Chroma subsampling : 4:2:0\n Bit depth : 8 bits\n Scan type : Progressive\n Bits/(Pixel*Frame) : 0.056\n Stream size : 553 MiB (95%)\n Encoded date : UTC 2015-08-15 12:55:20\n Tagged date : UTC 2015-08-15 12:55:30\n Color range : Limited\n\n Audio\n ID : 2\n Format : AAC\n Format/Info : Advanced Audio Codec\n Format profile : LC\n Codec ID : 40\n Duration : 22mn 6s\n Bit rate mode : Variable\n Bit rate : 192 Kbps\n Channel(s) : 2 channels\n Channel positions : Front: L R\n Sampling rate : 48.0 KHz\n Compression mode : Lossy\n Stream size : 29.9 MiB (5%)\n Title : Stereo\n Encoded date : UTC 2015-08-15 12:55:20\n Tagged date : UTC 2015-08-15 12:55:30","torrent":{"xt":"urn:btih:e05e7d13eaf51ef8a212ab0e2e824a8b8571b9bd","amp;dn":"Bringing+Up+Bates+-+s02e11+-+Boating+With+The+Bates","amp;tr":["udp%3A%2F%2Ftracker.openbittorrent.com%3A80","udp%3A%2F%2Fopen.demonii.com%3A1337","udp%3A%2F%2Ftracker.coppersurfer.tk%3A6969","udp%3A%2F%2Fexodus.desync.com%3A6969"],"infoHash":"e05e7d13eaf51ef8a212ab0e2e824a8b8571b9bd","infoHashBuffer":{"type":"Buffer","data":[224,94,125,19,234,245,30,248,162,18,171,14,46,130,74,139,133,113,185,189]},"announce":[],"urlList":[]}}